<svg xmlns="http://www.w3.org/2000/svg" xmlns:xlink="http://www.w3.org/1999/xlink" width="50" zoomAndPan="magnify" viewBox="0 0 37.5 37.499999" height="50" preserveAspectRatio="xMidYMid meet" version="1.0"><defs><clipPath id="df7cdbd27b"><path d="M 0 0 L 37.007812 0 L 37.007812 37.007812 L 0 37.007812 Z M 0 0 " clip-rule="nonzero"/></clipPath></defs><g clip-path="url(#df7cdbd27b)"><path fill="#ffffff" d="M 18.5 0 C 8.257812 0 -0.00390625 8.34375 -0.00390625 18.5 C -0.00390625 28.742188 8.339844 37.003906 18.5 37.003906 C 28.742188 37.003906 37.003906 28.660156 37.003906 18.5 C 37.003906 8.34375 28.742188 0 18.5 0 Z M 29.980469 27.421875 C 29.484375 29.074219 27.253906 31.46875 25.191406 31.46875 L 25.023438 31.386719 C 21.96875 31.222656 17.757812 28.332031 13.875 23.621094 L 12.46875 21.886719 C 8.589844 17.179688 6.523438 12.554688 7.019531 9.582031 C 7.347656 7.433594 10.488281 5.699219 12.304688 5.699219 C 13.214844 5.699219 13.542969 6.113281 13.625 6.441406 C 14.617188 8.257812 15.941406 11.398438 15.941406 12.554688 L 15.941406 12.71875 C 15.691406 13.296875 15.195312 13.628906 14.78125 13.875 C 14.203125 14.207031 13.875 14.453125 13.792969 15.03125 C 13.792969 15.199219 13.957031 16.105469 16.519531 19.246094 L 17.589844 20.566406 C 20.152344 23.621094 20.976562 23.953125 21.144531 23.953125 C 21.804688 24.035156 22.050781 23.789062 22.546875 23.292969 C 22.878906 22.878906 23.289062 22.464844 23.867188 22.382812 L 24.035156 22.382812 C 25.191406 22.632812 28 24.449219 29.652344 25.851562 C 29.898438 25.933594 30.3125 26.347656 29.980469 27.421875 Z M 29.980469 27.421875 " fill-opacity="1" fill-rule="nonzero"/></g></svg>