<svg xmlns="http://www.w3.org/2000/svg" xmlns:xlink="http://www.w3.org/1999/xlink" width="50" zoomAndPan="magnify" viewBox="0 0 37.5 37.499999" height="50" preserveAspectRatio="xMidYMid meet" version="1.0"><defs><clipPath id="6e2782733f"><path d="M 0 0 L 37.007812 0 L 37.007812 37.007812 L 0 37.007812 Z M 0 0 " clip-rule="nonzero"/></clipPath></defs><path fill="#ffffff" d="M 18.507812 8.140625 C 16.054688 8.140625 14.0625 10.132812 14.0625 12.585938 C 14.0625 15.039062 16.054688 17.027344 18.507812 17.027344 C 20.960938 17.027344 22.949219 15.039062 22.949219 12.585938 C 22.949219 10.132812 20.960938 8.140625 18.507812 8.140625 " fill-opacity="1" fill-rule="nonzero"/><g clip-path="url(#6e2782733f)"><path fill="#ffffff" d="M 18.507812 29.839844 C 18.507812 29.839844 10.167969 18.492188 10.167969 13.886719 C 10.167969 9.28125 13.902344 5.546875 18.507812 5.546875 C 23.113281 5.546875 26.84375 9.28125 26.84375 13.886719 C 26.84375 18.492188 18.507812 29.839844 18.507812 29.839844 Z M 18.507812 0 C 8.285156 0 0 8.285156 0 18.507812 C 0 28.726562 8.285156 37.011719 18.507812 37.011719 C 28.726562 37.011719 37.011719 28.726562 37.011719 18.507812 C 37.011719 8.285156 28.726562 0 18.507812 0 " fill-opacity="1" fill-rule="nonzero"/></g></svg>