<svg xmlns="http://www.w3.org/2000/svg" xmlns:xlink="http://www.w3.org/1999/xlink" width="50" zoomAndPan="magnify" viewBox="0 0 37.5 37.499999" height="50" preserveAspectRatio="xMidYMid meet" version="1.0"><defs><clipPath id="759e58d0fd"><path d="M 0 0 L 37.007812 0 L 37.007812 37.007812 L 0 37.007812 Z M 0 0 " clip-rule="nonzero"/></clipPath></defs><g clip-path="url(#759e58d0fd)"><path fill="#ffffff" d="M 18.503906 0 C 8.285156 0 0 8.285156 0 18.503906 C 0 28.722656 8.285156 37.007812 18.503906 37.007812 C 28.722656 37.007812 37.007812 28.722656 37.007812 18.503906 C 37.007812 8.285156 28.722656 0 18.503906 0 Z M 7.226562 9.652344 L 29.757812 9.652344 C 29.8125 9.652344 29.851562 9.679688 29.875 9.730469 C 29.894531 9.785156 29.882812 9.828125 29.84375 9.867188 L 22.269531 17.054688 L 22.257812 17.066406 L 19.996094 19.214844 C 19.777344 19.421875 19.527344 19.582031 19.246094 19.695312 C 18.96875 19.804688 18.675781 19.859375 18.375 19.859375 C 18.074219 19.855469 17.785156 19.796875 17.503906 19.683594 C 17.226562 19.570312 16.980469 19.40625 16.761719 19.199219 L 14.667969 17.167969 C 14.667969 17.164062 14.664062 17.160156 14.660156 17.15625 L 7.136719 9.867188 C 7.097656 9.828125 7.089844 9.78125 7.109375 9.730469 C 7.132812 9.679688 7.167969 9.652344 7.226562 9.652344 Z M 6.164062 26.109375 L 6.164062 10.648438 C 6.164062 10.59375 6.1875 10.554688 6.238281 10.53125 C 6.289062 10.511719 6.335938 10.519531 6.375 10.558594 L 13.519531 17.488281 C 13.578125 17.539062 13.578125 17.597656 13.53125 17.65625 L 6.382812 26.191406 C 6.347656 26.234375 6.300781 26.246094 6.246094 26.226562 C 6.191406 26.207031 6.164062 26.167969 6.164062 26.109375 Z M 29.988281 27.355469 L 7.015625 27.355469 C 6.964844 27.355469 6.925781 27.328125 6.90625 27.28125 C 6.882812 27.234375 6.886719 27.191406 6.921875 27.148438 L 14.257812 18.386719 C 14.316406 18.320312 14.375 18.316406 14.441406 18.378906 L 16.046875 19.9375 C 16.691406 20.566406 17.46875 20.878906 18.367188 20.882812 L 18.386719 20.882812 C 19.28125 20.886719 20.054688 20.578125 20.703125 19.960938 L 22.480469 18.273438 C 22.542969 18.210938 22.601562 18.214844 22.660156 18.285156 L 30.085938 27.148438 C 30.117188 27.191406 30.125 27.234375 30.101562 27.28125 C 30.078125 27.328125 30.042969 27.355469 29.988281 27.355469 Z M 30.84375 26.109375 C 30.84375 26.167969 30.816406 26.207031 30.761719 26.226562 C 30.707031 26.246094 30.660156 26.234375 30.621094 26.191406 L 23.398438 17.5625 C 23.347656 17.503906 23.351562 17.445312 23.40625 17.390625 L 30.632812 10.535156 C 30.671875 10.496094 30.71875 10.488281 30.769531 10.511719 C 30.816406 10.53125 30.84375 10.570312 30.84375 10.625 Z M 30.84375 26.109375 " fill-opacity="1" fill-rule="nonzero"/></g></svg>